<svg width="19" height="19" viewBox="0 0 19 19" fill="none" xmlns="http://www.w3.org/2000/svg">
<path d="M17.7539 16.3242L14.2383 12.8086C14.0625 12.668 13.8516 12.5625 13.6406 12.5625H13.0781C14.0273 11.332 14.625 9.78516 14.625 8.0625C14.625 4.05469 11.3203 0.75 7.3125 0.75C3.26953 0.75 0 4.05469 0 8.0625C0 12.1055 3.26953 15.375 7.3125 15.375C9 15.375 10.5469 14.8125 11.8125 13.8281V14.4258C11.8125 14.6367 11.8828 14.8477 12.0586 15.0234L15.5391 18.5039C15.8906 18.8555 16.418 18.8555 16.7344 18.5039L17.7188 17.5195C18.0703 17.2031 18.0703 16.6758 17.7539 16.3242ZM7.3125 12.5625C4.81641 12.5625 2.8125 10.5586 2.8125 8.0625C2.8125 5.60156 4.81641 3.5625 7.3125 3.5625C9.77344 3.5625 11.8125 5.60156 11.8125 8.0625C11.8125 10.5586 9.77344 12.5625 7.3125 12.5625Z" fill="white"/>
</svg>
